PathFileType	4	(X/Y/Z)	W14_1_OpenSim.trc																																																																																																																						
DataRate	CameraRate	NumFrames	NumMarkers	Units	OrigDataRate	OrigDataStartFrame	OrigNumFrames																																																																																																																		
100	100	4	40	mm	100	751	3000																																																																																																																		
Frame#	Time	R.ASIS			R.PSIS			S2			L.PSIS			L.ASIS			R.TH1			R.TH2			R.TH3			R.MKnee			R.Knee			R.SH1			R.SH2			R.SH3			R.SH4			R.Ankle			R.MAnkle			R.Heel			R.MT5			R.MT1			L.TH1			L.TH2			L.TH3			L.TH4			L.MKnee			L.Knee			L.SH1			L.SH2			L.SH3			L.Ankle			L.MAnkle			L.Heel			L.MT5			L.MT1			R.Acr			L.Acr			C7			T10			Clav			Sternum			R.Back		
		X1	Y1	Z1	X2	Y2	Z2	X3	Y3	Z3	X4	Y4	Z4	X5	Y5	Z5	X6	Y6	Z6	X7	Y7	Z7	X8	Y8	Z8	X9	Y9	Z9	X10	Y10	Z10	X11	Y11	Z11	X12	Y12	Z12	X13	Y13	Z13	X14	Y14	Z14	X15	Y15	Z15	X16	Y16	Z16	X17	Y17	Z17	X18	Y18	Z18	X19	Y19	Z19	X20	Y20	Z20	X21	Y21	Z21	X22	Y22	Z22	X23	Y23	Z23	X24	Y24	Z24	X25	Y25	Z25	X26	Y26	Z26	X27	Y27	Z27	X28	Y28	Z28	X29	Y29	Z29	X30	Y30	Z30	X31	Y31	Z31	X32	Y32	Z32	X33	Y33	Z33	X34	Y34	Z34	X35	Y35	Z35	X36	Y36	Z36	X37	Y37	Z37	X38	Y38	Z38	X39	Y39	Z39	X40	Y40	Z40
751	7.5	972.1489	1029.6628	-357.2637	780.5516	1037.0518	-454.3099	773.029	1030.9846	-499.3931	775.1458	1035.4658	-549.2158	951.2929	1024.5094	-652.7546	895.9208	702.8638	-340.8567	817.3204	717.4246	-324.174	795.7164	610.0922	-339.9296	785.0118	486.953	-469.3155	786.667	489.6532	-352.8164	734.8412	328.2292	-350.0297	696.7454	223.8442	-369.9639	657.1396	355.6809	-336.7721	623.1348	247.695	-348.8244	582.434	89.5617	-361.4904	621.0315	102.5704	-455.7692	517.9407	57.259	-418.6464	689.2029	36.5092	-330.98	737.3556	38.5906	-420.1869	1020.6068	756.5263	-671.459	1054.7368	653.2961	-665.6984	943.1609	726.9745	-685.641	979.93	624.1179	-672.3638	1086.5729	500.4351	-550.1029	1080.2198	511.2848	-661.5866	1123.8485	393.1463	-689.7415	1047.4348	364.9766	-678.0132	1088.2895	263.2372	-674.7302	1225.3206	91.5432	-690.9578	1255.6512	115.4849	-596.6992	1188.4286	29.4623	-631.7072	1342.6565	93.8884	-718.8043	1378.9825	125.9312	-622.9939	953.0946	1431.4702	-350.2099	872.6351	1413.2461	-665.97	857.7848	1466.369	-499.5597	816.5124	1141.0991	-493.4293	990.1014	1367.0298	-523.6085	1017.0046	1223.9807	-511.9997	796.5579	1373.2942	-393.7831
752	7.51	973.1495	1027.1343	-358.9983	781.8601	1034.5184	-456.8683	773.9633	1028.5767	-501.9225	776.7206	1033.2115	-551.7873	952.9583	1022.6569	-654.8939	895.9011	700.8129	-342.5862	817.2406	715.7408	-326.4068	795.3076	608.4247	-341.7945	784.4045	484.9631	-470.6341	785.5381	488.0767	-354.144	729.398	327.8749	-350.7128	688.4506	224.4661	-370.0176	652.4608	357.5463	-337.6951	615.4728	250.5198	-349.2476	570.4794	92.6505	-360.7756	609.4785	105.3404	-455.0034	505.0474	62.6097	-418.0075	675.7174	36.3906	-330.5899	723.7097	38.3001	-420.1	1023.9313	755.4552	-672.3397	1058.2239	652.319	-665.5131	946.5358	725.6517	-686.208	983.4846	623.0248	-671.9816	1090.3022	500.9494	-549.4265	1083.0601	510.333	-660.4543	1125.42	390.6111	-687.5838	1048.7358	363.6278	-675.4565	1088.1243	261.4269	-671.3843	1221.7744	89.2606	-687.2256	1252.9578	112.3775	-592.7483	1183.4109	28.8599	-627.6422	1338.5715	88.4194	-715.488	1376.1698	119.2339	-619.8768	953.9127	1429.4841	-352.7008	873.2681	1410.9928	-668.4349	858.4693	1464.2941	-501.9924	817.8395	1138.8589	-495.1662	991.1066	1364.9625	-525.9144	1018.1372	1221.969	-514.4159	797.2835	1371.2511	-396.0748
753	7.52	974.4973	1024.8357	-360.9473	783.4301	1032.3422	-459.4913	775.1787	1026.5647	-504.5179	778.5528	1031.3699	-554.4239	954.8024	1021.3143	-657.1774	896.522	698.9226	-344.4937	817.7696	714.059	-328.8433	795.7343	606.7042	-343.7815	784.7615	482.9111	-471.9931	785.4627	486.5175	-355.4713	724.7606	327.7579	-351.3058	680.8205	225.4824	-369.8883	648.6991	359.7924	-338.6384	608.5507	253.8887	-349.5763	559.0764	96.3362	-359.8563	598.519	108.6022	-453.9728	492.6175	69.0456	-417.1753	662.4238	36.234	-330.1284	710.0881	37.904	-420.0036	1027.4582	754.8477	-673.5258	1061.9441	651.8259	-665.5434	950.0695	724.7517	-686.7394	987.2501	622.4025	-671.4971	1094.385	502.0042	-548.8375	1086.3652	509.9177	-659.3666	1127.4063	388.4709	-685.3022	1050.2615	363.1144	-673.4426	1087.54	260.2354	-668.6932	1216.4574	87.1704	-683.9858	1248.1328	108.5921	-589.0005	1175.5315	28.8092	-624.6245	1332.6209	81.7894	-711.9006	1371.3838	110.2758	-616.1563	954.6954	1427.7358	-355.2485	874.0209	1409.0381	-671.0598	859.2133	1462.5172	-504.5596	819.3491	1136.8981	-496.9751	992.1991	1363.2454	-528.3609	1019.4219	1220.3147	-517.005	798.0142	1369.4082	-398.5691
754	7.53	976.2081	1022.8502	-363.1388	785.2499	1030.6033	-462.1224	776.7021	1025.031	-507.1319	780.6101	1030.0203	-557.0688	956.8056	1020.5313	-659.5573	897.8769	697.2037	-346.5768	819.0023	712.3548	-331.4391	797.1329	604.8991	-345.865	786.251	480.783	-473.3755	786.6226	484.9563	-356.7734	721.1183	327.899	-351.7904	674.0527	226.9261	-369.5787	646.0584	362.4283	-339.6163	602.5726	257.8317	-349.8168	548.41	100.7095	-358.7615	588.3342	112.3621	-452.6957	480.8781	76.7062	-416.1809	649.3674	36.0806	-329.6205	696.5127	37.4074	-419.9133	1031.0313	754.6379	-675.0463	1065.6951	651.7341	-665.8633	953.5956	724.2526	-687.3314	991.0124	622.2014	-671.0396	1098.3026	503.3547	-548.3533	1089.9983	510.011	-658.4335	1129.7922	386.8587	-683.0926	1052.0587	363.4155	-672.262	1086.787	259.7304	-666.9878	1209.9351	85.3621	-681.4442	1241.6644	104.5818	-585.7328	1165.6417	29.3375	-622.7476	1325.3608	74.4874	-708.2435	1365.0289	99.9761	-612.0977	955.4189	1426.2852	-357.8303	874.9053	1407.4526	-673.8359	860.0162	1461.101	-507.2484	821.0059	1135.2832	-498.8336	993.3693	1361.9567	-530.9318	1020.8499	1219.0964	-519.7496	798.7415	1367.8071	-401.2602
